<svg width="50" height="30" viewBox="0 0 50 30" fill="none" xmlns="http://www.w3.org/2000/svg">
<g clip-path="url(#clip0)">
<path fill-rule="evenodd" clip-rule="evenodd" d="M14.16 0C12.3172 0 10.8247 1.48758 10.8247 3.34371V19.3151C10.8229 20.198 11.1712 21.0456 11.7933 21.672C12.4154 22.2985 13.2605 22.6528 14.1434 22.6572H17.8756L17.5755 29.0728C17.5304 29.9983 18.0758 30.2802 18.8029 29.6915L27.5015 22.6572H35.8299C36.2693 22.6583 36.7045 22.5726 37.1107 22.4051C37.5169 22.2376 37.8859 21.9915 38.1968 21.681C38.5076 21.3705 38.754 21.0016 38.922 20.5956C39.0899 20.1896 39.176 19.7545 39.1753 19.3151V3.34371C39.1753 1.49591 37.6911 0 35.84 0H14.16Z" fill="white"/>
</g>
<defs>
<clipPath id="clip0">
<rect width="50" height="30" fill="white"/>
</clipPath>
</defs>
</svg>
