<svg width="26" height="26" viewBox="0 0 26 26" fill="none" xmlns="http://www.w3.org/2000/svg">
<g clip-path="url(#clip0)">
<path d="M25.5882 10.4735C25.1112 7.90292 23.8579 5.54032 21.997 3.70393C20.1361 1.86755 17.7572 0.645619 15.1805 0.202761C12.6039 -0.240096 9.95342 0.117398 7.5862 1.22708C5.21897 2.33676 3.24872 4.14532 1.94087 6.4091C0.633029 8.67288 0.0504284 11.2831 0.27156 13.8882C0.492691 16.4932 1.50693 18.9679 3.17764 20.9788C4.84835 22.9898 7.09525 24.4404 9.61565 25.1351C12.1361 25.8299 14.8088 25.7356 17.274 24.8647C17.3823 24.8283 17.4996 24.8283 17.6079 24.8647L21.0026 25.9777C21.1735 26.0317 21.3549 26.0436 21.5314 26.0124C21.7079 25.9812 21.8742 25.9079 22.0163 25.7986C22.1583 25.6893 22.2719 25.5473 22.3473 25.3847C22.4228 25.2222 22.4578 25.0438 22.4495 24.8647V21.6147C22.4518 21.4822 22.5034 21.3552 22.5942 21.2586C23.1387 20.642 23.6232 19.9748 24.0411 19.2663C25.5982 16.6171 26.1475 13.4951 25.5882 10.4735V10.4735ZM8.54794 13.9127C8.32781 13.9127 8.11262 13.8474 7.92958 13.7251C7.74655 13.6028 7.60389 13.429 7.51965 13.2256C7.43541 13.0222 7.41337 12.7984 7.45631 12.5825C7.49926 12.3666 7.60526 12.1683 7.76092 12.0126C7.91658 11.857 8.1149 11.751 8.3308 11.708C8.54671 11.6651 8.7705 11.6871 8.97387 11.7714C9.17725 11.8556 9.35108 11.9983 9.47338 12.1813C9.59568 12.3643 9.66095 12.5795 9.66095 12.7997C9.66095 13.0949 9.54369 13.3779 9.33496 13.5867C9.12623 13.7954 8.84313 13.9127 8.54794 13.9127ZM13 13.9127C12.7799 13.9127 12.5647 13.8474 12.3816 13.7251C12.1986 13.6028 12.0559 13.429 11.9717 13.2256C11.8875 13.0222 11.8654 12.7984 11.9084 12.5825C11.9513 12.3666 12.0573 12.1683 12.213 12.0126C12.3686 11.857 12.567 11.751 12.7829 11.708C12.9988 11.6651 13.2226 11.6871 13.4259 11.7714C13.6293 11.8556 13.8031 11.9983 13.9254 12.1813C14.0477 12.3643 14.113 12.5795 14.113 12.7997C14.113 13.0949 13.9957 13.3779 13.787 13.5867C13.5783 13.7954 13.2952 13.9127 13 13.9127ZM17.4521 13.9127C17.2319 13.9127 17.0167 13.8474 16.8337 13.7251C16.6507 13.6028 16.508 13.429 16.4238 13.2256C16.3395 13.0222 16.3175 12.7984 16.3604 12.5825C16.4034 12.3666 16.5094 12.1683 16.665 12.0126C16.8207 11.857 17.019 11.751 17.2349 11.708C17.4508 11.6651 17.6746 11.6871 17.878 11.7714C18.0814 11.8556 18.2552 11.9983 18.3775 12.1813C18.4998 12.3643 18.5651 12.5795 18.5651 12.7997C18.5651 13.0949 18.4478 13.3779 18.2391 13.5867C18.0303 13.7954 17.7472 13.9127 17.4521 13.9127Z" fill="white"/>
</g>
<defs>
<clipPath id="clip0">
<rect width="26" height="26" fill="white"/>
</clipPath>
</defs>
</svg>
